<svg width="159" height="36" viewBox="0 0 159 36" fill="none" xmlns="http://www.w3.org/2000/svg">
<mask id="mask0_1218_4545" style="mask-type:luminance" maskUnits="userSpaceOnUse" x="0" y="0" width="36" height="36">
<path d="M36 36H0V0H36V36Z" fill="white"/>
</mask>
<g mask="url(#mask0_1218_4545)">
<path d="M3.52355 20.2135C3.37733 20.759 3.37732 21.3334 3.52349 21.879C3.66966 22.4245 3.95687 22.922 4.35626 23.3213L12.6785 31.6435C13.0779 32.0429 13.5753 32.3301 14.1209 32.4763C14.6664 32.6225 15.2408 32.6225 15.7863 32.4763L23.5739 30.3896C23.6549 31.4565 24.0264 32.4808 24.648 33.3517L15.2684 35.8647C14.5952 36.0451 13.8864 36.0451 13.2131 35.8647C12.5399 35.6843 11.926 35.3299 11.4332 34.8371L1.16289 24.5669C0.670076 24.074 0.315671 23.4601 0.13529 22.7869C-0.0450926 22.1136 -0.0450965 21.4048 0.135278 20.7316L2.74493 10.9923C3.59803 11.6438 4.61371 12.0484 5.6811 12.1619L3.52355 20.2135Z" fill="#112D64"/>
<path d="M30.2492 24.1065L32.4788 15.7858C32.6251 15.2402 32.6249 14.6658 32.4788 14.1204C32.3325 13.5747 32.0452 13.0773 31.6459 12.678L23.3236 4.35553C22.9243 3.95617 22.4269 3.66909 21.8812 3.52282C21.3358 3.37675 20.7612 3.37675 20.2158 3.52282L12.1642 5.68038C12.0508 4.61292 11.6462 3.59723 10.9946 2.74421L20.7339 0.134554C21.4071 -0.0458927 22.116 -0.0458927 22.7891 0.134554C23.4625 0.315001 24.0763 0.669258 24.5692 1.16217L34.8394 11.4324C35.3323 11.9253 35.6866 12.5391 35.867 13.2125C36.0475 13.8856 36.0475 14.5945 35.867 15.2677L33.159 25.3716C32.3239 24.69 31.317 24.2522 30.2492 24.1065Z" fill="#112D64"/>
<path d="M2.98148 9.6487C2.32189 8.98921 1.87271 8.14868 1.69072 7.23395C1.50874 6.31902 1.60214 5.37069 1.9591 4.50888C2.31605 3.64727 2.92055 2.91064 3.69612 2.39234C4.47171 1.87424 5.38354 1.59751 6.31634 1.59751C7.24912 1.59751 8.16096 1.87424 8.93653 2.39234C9.71212 2.91064 10.3166 3.64727 10.6736 4.50888C11.0305 5.37069 11.1239 6.31902 10.9419 7.23395C10.76 8.14868 10.3108 8.98921 9.65119 9.6487C8.76605 10.5318 7.56672 11.0278 6.31634 11.0278C5.06596 11.0278 3.86663 10.5318 2.98148 9.6487Z" fill="#1D4CAA"/>
<path d="M26.105 33.2642C25.4455 32.6046 24.9961 31.7642 24.8143 30.8494C24.6323 29.9345 24.7256 28.9862 25.0826 28.1244C25.4396 27.2627 26.044 26.5261 26.8195 26.0079C27.5952 25.4896 28.507 25.213 29.4397 25.213C30.3726 25.213 31.2844 25.4896 32.0601 26.0079C32.8356 26.5261 33.44 27.2627 33.797 28.1244C34.154 28.9862 34.2473 29.9345 34.0653 30.8494C33.8835 31.7642 33.4342 32.6046 32.7747 33.2642C31.8896 34.1473 30.6902 34.6433 29.4397 34.6433C28.1895 34.6433 26.99 34.1473 26.105 33.2642Z" fill="#1D4CAA"/>
<path d="M20.7719 5.49791C20.5825 5.49791 20.394 5.52271 20.211 5.57173L12.8408 7.54669C12.5951 8.85904 11.9584 10.0665 11.0143 11.0105C10.0702 11.9546 8.86277 12.5914 7.55042 12.8371L5.57566 20.2067C5.47776 20.5743 5.47803 20.9611 5.5765 21.3286C5.67496 21.696 5.86814 22.0312 6.13672 22.3006L13.7014 29.8655C13.9705 30.1346 14.3057 30.3281 14.6733 30.4266C15.0409 30.5251 15.428 30.5251 15.7955 30.4266L22.9591 28.5071C23.2433 27.2029 23.9147 26.0149 24.8855 25.0987C25.8562 24.1826 27.0811 23.581 28.3995 23.3727L30.4305 15.7912C30.5283 15.4235 30.5281 15.0366 30.4295 14.6693C30.3311 14.3017 30.138 13.9666 29.8692 13.6971L22.3045 6.1324C22.1038 5.93067 21.8647 5.77053 21.6017 5.66176C21.3386 5.55279 21.0566 5.49713 20.7719 5.49791Z" fill="#FFC875"/>
</g>
<path d="M47.76 10.54H50.22V22.9H56.75V25H47.75L47.76 10.54ZM60.6572 20.39C60.6505 20.9767 60.7439 21.4967 60.9372 21.95C61.1305 22.4033 61.4172 22.76 61.7972 23.02C62.1772 23.2733 62.6472 23.4 63.2072 23.4C63.7805 23.4 64.2772 23.2733 64.6972 23.02C65.1239 22.76 65.4072 22.3667 65.5472 21.84H67.7772C67.6572 22.56 67.3705 23.17 66.9172 23.67C66.4639 24.17 65.9139 24.55 65.2672 24.81C64.6272 25.07 63.9605 25.2 63.2672 25.2C62.2672 25.2 61.3872 24.99 60.6272 24.57C59.8739 24.1433 59.2839 23.5367 58.8572 22.75C58.4372 21.9633 58.2272 21.0267 58.2272 19.94C58.2272 18.88 58.4205 17.94 58.8072 17.12C59.1939 16.2933 59.7505 15.6433 60.4772 15.17C61.2105 14.6967 62.0905 14.46 63.1172 14.46C64.1372 14.46 64.9939 14.6767 65.6872 15.11C66.3872 15.5433 66.9139 16.15 67.2672 16.93C67.6272 17.7033 67.8072 18.61 67.8072 19.65V20.39H60.6572ZM60.6572 18.88H65.5072C65.5072 18.38 65.4205 17.93 65.2472 17.53C65.0739 17.1233 64.8072 16.8033 64.4472 16.57C64.0939 16.33 63.6472 16.21 63.1072 16.21C62.5739 16.21 62.1239 16.34 61.7572 16.6C61.3905 16.86 61.1139 17.1967 60.9272 17.61C60.7405 18.0167 60.6505 18.44 60.6572 18.88ZM72.9077 25.2C72.2477 25.2 71.6543 25.08 71.1277 24.84C70.6077 24.5933 70.1977 24.2433 69.8977 23.79C69.6043 23.33 69.4577 22.7733 69.4577 22.12C69.4577 20.98 69.8677 20.12 70.6877 19.54C71.5143 18.96 72.831 18.6567 74.6377 18.63L76.1777 18.59V17.89C76.1777 17.3433 76.0143 16.9167 75.6877 16.61C75.3677 16.2967 74.8677 16.1433 74.1877 16.15C73.6877 16.1567 73.2277 16.2767 72.8077 16.51C72.3943 16.7367 72.121 17.12 71.9877 17.66H69.9177C69.9577 16.9533 70.161 16.3633 70.5277 15.89C70.901 15.41 71.411 15.0533 72.0577 14.82C72.7043 14.58 73.451 14.46 74.2977 14.46C75.2843 14.46 76.0877 14.59 76.7077 14.85C77.3277 15.11 77.7843 15.4867 78.0777 15.98C78.371 16.4667 78.5177 17.0567 78.5177 17.75V25H76.4677L76.2777 23.14C75.9043 23.92 75.431 24.46 74.8577 24.76C74.291 25.0533 73.641 25.2 72.9077 25.2ZM73.6977 23.55C73.9977 23.55 74.2943 23.4967 74.5877 23.39C74.881 23.2767 75.1477 23.1267 75.3877 22.94C75.6277 22.7467 75.8177 22.5333 75.9577 22.3C76.1043 22.0667 76.1777 21.8233 76.1777 21.57V19.94L74.9077 19.96C74.281 19.9667 73.7343 20.0333 73.2677 20.16C72.801 20.2867 72.4343 20.49 72.1677 20.77C71.9077 21.0433 71.7777 21.41 71.7777 21.87C71.7777 22.3967 71.961 22.81 72.3277 23.11C72.6943 23.4033 73.151 23.55 73.6977 23.55ZM85.1544 25.2C83.7877 25.2 82.7144 24.73 81.9344 23.79C81.1544 22.85 80.7644 21.5133 80.7644 19.78C80.7644 18.7 80.921 17.7633 81.2344 16.97C81.5544 16.17 82.021 15.5533 82.6344 15.12C83.2544 14.68 84.021 14.46 84.9344 14.46C85.361 14.46 85.7477 14.5133 86.0944 14.62C86.4477 14.72 86.761 14.8533 87.0344 15.02C87.3077 15.1867 87.5377 15.37 87.7244 15.57C87.9177 15.77 88.0677 15.97 88.1744 16.17V10.14H90.6144V25H88.8144L88.5444 22.88C88.4644 23.1267 88.3444 23.3867 88.1844 23.66C88.031 23.9267 87.821 24.1767 87.5544 24.41C87.2944 24.6433 86.9677 24.8333 86.5744 24.98C86.181 25.1267 85.7077 25.2 85.1544 25.2ZM85.6544 23.41C86.5277 23.41 87.1644 23.1267 87.5644 22.56C87.971 21.9867 88.1744 21.04 88.1744 19.72C88.1677 18.9667 88.0744 18.3333 87.8944 17.82C87.721 17.3067 87.451 16.92 87.0844 16.66C86.7244 16.4 86.2577 16.27 85.6844 16.27C84.951 16.27 84.3477 16.54 83.8744 17.08C83.401 17.62 83.1644 18.5 83.1644 19.72C83.1644 20.9333 83.381 21.8533 83.8144 22.48C84.2477 23.1 84.861 23.41 85.6544 23.41ZM93.7461 25V10.54H97.2261L101.016 21.59L104.846 10.54H108.306V25H105.836V13.66L102.026 25H99.9961L96.2161 13.73V25H93.7461ZM114.333 25.2C113.673 25.2 113.08 25.08 112.553 24.84C112.033 24.5933 111.623 24.2433 111.323 23.79C111.03 23.33 110.883 22.7733 110.883 22.12C110.883 20.98 111.293 20.12 112.113 19.54C112.94 18.96 114.257 18.6567 116.063 18.63L117.603 18.59V17.89C117.603 17.3433 117.44 16.9167 117.113 16.61C116.793 16.2967 116.293 16.1433 115.613 16.15C115.113 16.1567 114.653 16.2767 114.233 16.51C113.82 16.7367 113.547 17.12 113.413 17.66H111.343C111.383 16.9533 111.587 16.3633 111.953 15.89C112.327 15.41 112.837 15.0533 113.483 14.82C114.13 14.58 114.877 14.46 115.723 14.46C116.71 14.46 117.513 14.59 118.133 14.85C118.753 15.11 119.21 15.4867 119.503 15.98C119.797 16.4667 119.943 17.0567 119.943 17.75V25H117.893L117.703 23.14C117.33 23.92 116.857 24.46 116.283 24.76C115.717 25.0533 115.067 25.2 114.333 25.2ZM115.123 23.55C115.423 23.55 115.72 23.4967 116.013 23.39C116.307 23.2767 116.573 23.1267 116.813 22.94C117.053 22.7467 117.243 22.5333 117.383 22.3C117.53 22.0667 117.603 21.8233 117.603 21.57V19.94L116.333 19.96C115.707 19.9667 115.16 20.0333 114.693 20.16C114.227 20.2867 113.86 20.49 113.593 20.77C113.333 21.0433 113.203 21.41 113.203 21.87C113.203 22.3967 113.387 22.81 113.753 23.11C114.12 23.4033 114.577 23.55 115.123 23.55ZM126.543 25.2C125.823 25.2 125.14 25.0867 124.493 24.86C123.853 24.6267 123.313 24.2633 122.873 23.77C122.44 23.2767 122.167 22.64 122.053 21.86H124.193C124.287 22.24 124.45 22.55 124.683 22.79C124.923 23.03 125.207 23.2067 125.533 23.32C125.86 23.4267 126.193 23.48 126.533 23.48C127.153 23.48 127.653 23.3733 128.033 23.16C128.42 22.9467 128.613 22.6167 128.613 22.17C128.613 21.8433 128.507 21.5833 128.293 21.39C128.08 21.1967 127.74 21.05 127.273 20.95L125.303 20.5C124.43 20.3067 123.727 19.9867 123.193 19.54C122.667 19.0933 122.4 18.4633 122.393 17.65C122.387 17.0367 122.54 16.49 122.853 16.01C123.167 15.53 123.633 15.1533 124.253 14.88C124.873 14.6 125.64 14.46 126.553 14.46C127.76 14.46 128.727 14.73 129.453 15.27C130.18 15.8033 130.553 16.5667 130.573 17.56H128.503C128.43 17.1133 128.22 16.7667 127.873 16.52C127.527 16.2667 127.077 16.14 126.523 16.14C125.95 16.14 125.48 16.25 125.113 16.47C124.747 16.69 124.563 17.0267 124.563 17.48C124.563 17.7933 124.703 18.04 124.983 18.22C125.263 18.4 125.683 18.5533 126.243 18.68L128.103 19.13C128.637 19.2633 129.073 19.4433 129.413 19.67C129.753 19.8967 130.02 20.1467 130.213 20.42C130.407 20.6867 130.54 20.9633 130.613 21.25C130.693 21.53 130.733 21.79 130.733 22.03C130.733 22.6967 130.56 23.2667 130.213 23.74C129.873 24.2067 129.39 24.5667 128.763 24.82C128.137 25.0733 127.397 25.2 126.543 25.2ZM138.67 16.38H136.36L136.37 22.31C136.37 22.6167 136.403 22.8433 136.47 22.99C136.543 23.13 136.657 23.2233 136.81 23.27C136.97 23.31 137.183 23.33 137.45 23.33H138.72V24.87C138.587 24.9233 138.383 24.97 138.11 25.01C137.843 25.0567 137.483 25.08 137.03 25.08C136.21 25.08 135.573 24.9733 135.12 24.76C134.673 24.54 134.363 24.23 134.19 23.83C134.017 23.43 133.93 22.9533 133.93 22.4V16.38H132.25V14.66H134L134.61 11.59H136.36V14.65H138.67V16.38ZM142.669 20.39C142.662 20.9767 142.756 21.4967 142.949 21.95C143.142 22.4033 143.429 22.76 143.809 23.02C144.189 23.2733 144.659 23.4 145.219 23.4C145.792 23.4 146.289 23.2733 146.709 23.02C147.136 22.76 147.419 22.3667 147.559 21.84H149.789C149.669 22.56 149.382 23.17 148.929 23.67C148.476 24.17 147.926 24.55 147.279 24.81C146.639 25.07 145.972 25.2 145.279 25.2C144.279 25.2 143.399 24.99 142.639 24.57C141.886 24.1433 141.296 23.5367 140.869 22.75C140.449 21.9633 140.239 21.0267 140.239 19.94C140.239 18.88 140.432 17.94 140.819 17.12C141.206 16.2933 141.762 15.6433 142.489 15.17C143.222 14.6967 144.102 14.46 145.129 14.46C146.149 14.46 147.006 14.6767 147.699 15.11C148.399 15.5433 148.926 16.15 149.279 16.93C149.639 17.7033 149.819 18.61 149.819 19.65V20.39H142.669ZM142.669 18.88H147.519C147.519 18.38 147.432 17.93 147.259 17.53C147.086 17.1233 146.819 16.8033 146.459 16.57C146.106 16.33 145.659 16.21 145.119 16.21C144.586 16.21 144.136 16.34 143.769 16.6C143.402 16.86 143.126 17.1967 142.939 17.61C142.752 18.0167 142.662 18.44 142.669 18.88ZM152.087 25V14.66H154.417V16.9C154.584 16.3867 154.82 15.95 155.127 15.59C155.44 15.2233 155.807 14.9433 156.227 14.75C156.647 14.5567 157.104 14.46 157.597 14.46C157.717 14.46 157.834 14.4667 157.947 14.48C158.06 14.4933 158.144 14.5167 158.197 14.55V16.88C158.124 16.8467 158.027 16.8233 157.907 16.81C157.794 16.7967 157.694 16.79 157.607 16.79C157.107 16.75 156.664 16.77 156.277 16.85C155.897 16.93 155.574 17.0667 155.307 17.26C155.047 17.4467 154.85 17.6867 154.717 17.98C154.584 18.2667 154.517 18.6033 154.517 18.99V25H152.087Z" fill="#112D64"/>
</svg>
