<svg width="124" height="100" viewBox="0 0 124 100" fill="none" xmlns="http://www.w3.org/2000/svg">
<g id="Quotes">
<path id="&#226;&#128;&#156;" d="M75.1999 100L75.1999 92.0543C86.2537 86.1111 94.1672 79.9096 98.9405 73.4496C103.714 66.9897 106.1 59.9483 106.1 52.3256C106.1 47.8036 105.472 44.7028 104.216 43.0233C103.086 41.2145 101.704 40.3101 100.071 40.3101C98.438 40.3101 96.2398 40.7623 93.4764 41.6667C90.7129 42.7003 88.2007 43.2171 85.9397 43.2171C80.7896 43.2171 76.3304 41.2145 72.562 37.2093C68.6681 33.3333 66.7211 28.553 66.7211 22.8682C66.7211 16.6667 69.0449 11.3049 73.6925 6.78296C78.3402 2.3902 84.1183 0.193821 91.0269 0.19382C99.4429 0.193819 107.042 3.94058 113.825 11.4341C120.608 18.9277 124 28.1654 124 39.1473C124 52.0672 119.855 64.0827 111.564 75.1938C103.148 86.4341 91.0269 94.7028 75.1999 100ZM9.62066 99.4186L9.62066 92.0543C22.3074 84.5607 30.6606 77.8424 34.6802 71.8992C38.6998 65.9561 40.7095 58.9793 40.7095 50.969C40.7095 47.3514 40.0187 44.6383 38.637 42.8295C37.2552 41.0207 35.8107 40.1163 34.3034 40.1163C32.9216 40.1163 30.849 40.6331 28.0856 41.6667C25.3221 42.7003 22.5587 43.2171 19.7952 43.2171C14.6451 43.2171 10.1859 41.2791 6.41756 37.4031C2.52359 33.6563 0.576616 29.0052 0.576615 23.4496C0.576615 17.1189 3.02605 11.6279 7.9249 6.97676C12.6981 2.3256 18.6019 2.4473e-05 25.6361 2.3858e-05C33.9265 2.31333e-05 41.4004 3.68219 48.0578 11.0465C54.7152 18.4109 58.044 27.584 58.044 38.5659C58.044 52.1318 53.836 64.4703 45.42 75.5814C37.004 86.8217 25.0709 94.7675 9.62066 99.4186Z" fill="#FFF1DB"/>
</g>
</svg>
