<svg width="220" height="320" viewBox="0 0 220 320" fill="none" xmlns="http://www.w3.org/2000/svg">
  <rect width="220" height="320" rx="22" fill="#F7F7F8"/>
  <rect x="34" y="60" width="152" height="180" rx="16" fill="#E0E9FA"/>
  <ellipse cx="110" cy="190" rx="56" ry="24" fill="#FFB13D" opacity="0.13"/>
  <ellipse cx="170" cy="110" rx="18" ry="18" fill="#71C441" opacity="0.14"/>
  <polyline points="50,220 80,140 110,200 140,90 180,150" fill="none" stroke="#225AC8" stroke-width="5" stroke-linecap="round" stroke-linejoin="round"/>
  <rect x="90" y="105" width="32" height="10" rx="5" fill="#225AC8"/>
  <rect x="110" y="200" width="36" height="10" rx="5" fill="#225AC8" opacity="0.3"/>
  <rect x="60" y="170" width="18" height="10" rx="5" fill="#FFB13D"/>
  <circle cx="150" cy="100" r="8" fill="#17ACD2"/>
  <circle cx="120" cy="150" r="7" fill="#E11428"/>
  <path d="M80 210 Q100 130 120 170 Q160 210 180 140" stroke="#9AA0AC" stroke-width="2" fill="none" opacity="0.7"/>
  <rect x="140" y="210" width="28" height="10" rx="5" fill="#E9EAED"/>
  <rect x="95" y="170" width="12" height="40" rx="4" fill="#225AC8" opacity="0.14"/>
</svg>
